<?xml version="1.0" encoding="UTF-8"?><!DOCTYPE svg PUBLIC "-//W3C//DTD SVG 1.1//EN" "http://www.w3.org/Graphics/SVG/1.1/DTD/svg11.dtd"><svg xmlns="http://www.w3.org/2000/svg" xmlns:xlink="http://www.w3.org/1999/xlink"><symbol id="arrow-down" viewBox="0 0 20 20"><g fill="none"><path d="M10 2v11.172c0 1.781 2.154 2.674 3.414 1.414L17 11M3 11l7 7" stroke="currentColor" stroke-width="1.5"/></g></symbol><symbol id="arrow-left" viewBox="0 0 20 20"><g fill="none"><path d="M18 10H6.828c-1.781 0-2.674 2.154-1.414 3.414L9 17M9 3l-7 7" stroke="currentColor" stroke-width="1.5"/></g></symbol><symbol id="arrow-right" viewBox="0 0 20 20"><g fill="none"><path d="M2 10h11.172c1.781 0 2.674 2.154 1.414 3.414L11 17m0-14 7 7" stroke="currentColor" stroke-width="1.5"/></g></symbol><symbol id="arrow-up" viewBox="0 0 20 20"><g fill="none"><path d="M10 18V6.828c0-1.781 2.154-2.674 3.414-1.414L17 9M3 9l7-7" stroke="currentColor" stroke-width="1.5"/></g></symbol><symbol id="call" viewBox="0 0 20 20"><g fill="none"><path d="m10.108 15.353-2.1-3.028a1.855 1.855 0 0 0-2.254-.648l-1.63.698a1.855 1.855 0 0 0-1.028 2.29l.409 1.229c.222.666.804 1.147 1.505 1.103 1.134-.07 3.001-.401 5.098-1.644Zm0 0a14.92 14.92 0 0 0 2.94-2.306c3.194-3.195 3.847-6.39 3.95-8.037.043-.701-.438-1.283-1.104-1.505l-1.228-.41a1.855 1.855 0 0 0-2.291 1.03l-.698 1.629a1.855 1.855 0 0 0 .648 2.255l1.426.988" stroke="currentColor" stroke-width="1.5"/></g></symbol><symbol id="card-checkmark" viewBox="0 0 16 10"><g fill="none"><path d="m1 4.15 3.332 3.535a3 3 0 0 0 4.366 0L15 1" stroke="currentColor" stroke-width="1.5"/></g></symbol><symbol id="checkbox" viewBox="0 0 17 12"><g fill="none"><path d="m1 4.6 4.932 4.735a1 1 0 0 0 1.386 0L16 1" stroke="currentColor" stroke-width="1.5"/></g></symbol><symbol id="close" viewBox="0 0 20 20"><g fill="none"><path d="m16.364 3.614-3.182 3.182c-1.91 1.91-1.782 4.582 0 6.364l3.182 3.182M3.636 3.614l4.773 4.773m-4.773 7.955 4.773-4.773" stroke="currentColor" stroke-width="1.5"/></g></symbol><symbol id="discount" viewBox="0 0 12 12"><g fill="none"><path d="m3.658 8.844 4.684-5.688" stroke="currentColor"/><circle cx="4.1" cy="4.1" r="1.1" fill="currentColor"/><circle cx="7.899" cy="7.901" r="1.1" fill="currentColor"/></g></symbol><symbol id="download" viewBox="0 0 20 20"><g fill="none"><path d="M10 2v8.172c0 1.781-2.154 2.674-3.414 1.414L3 8m14 0-7 7M3 17.25h14" stroke="currentColor" stroke-width="1.5"/></g></symbol><symbol id="dropdown-large" viewBox="0 0 13 6"><g fill="none"><path d="M10.49 1.254 8.16 3.585a2 2 0 0 1-2.829 0L3 1.254" stroke="currentColor" stroke-width="1.5"/></g></symbol><symbol id="dropdown" viewBox="0 0 9 6"><g fill="none"><path d="m1 1.536 2.121 2.121a2 2 0 0 0 2.829 0L8.07 1.536" stroke="currentColor"/></g></symbol><symbol id="email" viewBox="0 0 20 20"><g fill="none"><path d="M17 6v8a2 2 0 0 1-2 2H4a2 2 0 0 1-2-2V9.333M17 6l-6.593 3.356a2 2 0 0 1-1.815 0L2.677 6.345A1.24 1.24 0 0 1 3.24 4H15a2 2 0 0 1 2 2Z" stroke="currentColor" stroke-width="1.5"/></g></symbol><symbol id="example-arrow-left" viewBox="0 0 20 20"><g fill="none"><path d="m12 16-6-6 6-6" stroke="currentColor" stroke-width="2" stroke-linecap="round" stroke-linejoin="round"/></g></symbol><symbol id="example-arrow" viewBox="0 0 20 20"><g fill="none"><path d="m8 4 6 6-6 6" stroke="currentColor" stroke-width="2" stroke-linecap="round" stroke-linejoin="round" fill="none"/></g></symbol><symbol id="example-password-hide" viewBox="0 0 16 16"><g fill="none"><path stroke="currentColor" fill="none" stroke-linecap="square" stroke-miterlimit="10" stroke-width="1.5" d="M13.558 6.68c.714.728 1.108 1.32 1.108 1.32S12 12 8 12c-.344 0-.677-.03-1-.083m-2.855-1.174A11.116 11.116 0 0 1 1.333 8S4 4 8 4c1.196 0 2.272.358 3.194.859"/><path stroke="currentColor" fill="none" stroke-linecap="square" stroke-miterlimit="10" stroke-width="1.5" d="M10.398 5.5A2.667 2.667 0 1 0 6.5 8.872"/><path stroke="currentColor" fill="none" stroke-width="1.5" d="M2 13 14 3"/></g></symbol><symbol id="example-password" viewBox="0 0 16 16"><g fill="none"><path stroke="currentColor" fill="none" stroke-linecap="square" stroke-miterlimit="10" stroke-width="1.5" d="M1.333 8S4 4 8 4s6.666 4 6.666 4S12 12 8 12 1.333 8 1.333 8Z"/><path stroke="currentColor" fill="none" stroke-linecap="square" stroke-miterlimit="10" stroke-width="1.5" d="M8 9.333A2.667 2.667 0 1 0 8 4a2.667 2.667 0 0 0 0 5.333Z"/></g></symbol><symbol id="example-zoom-in" viewBox="0 0 24 24"><g fill="none"><rect x="9" y="1" width="6" height="22" rx="2" fill="currentColor"/><rect x="1" y="15" width="6" height="22" rx="2" transform="rotate(-90 1 15)" fill="currentColor"/></g></symbol><symbol id="example-zoom-out" viewBox="0 0 24 24"><g fill="none"><rect x="1" y="15" width="6" height="22" rx="2" transform="rotate(-90 1 15)" fill="currentColor"/></g></symbol><symbol id="favourite-not-empty" viewBox="0 0 20 20"><g fill="none"><path d="M10 18 2.322 9.554a3.62 3.62 0 0 1 5.237-4.995L11 8m.5-2.5.94-.94a3.62 3.62 0 0 1 5.238 4.994l-.405.446" stroke="currentColor" stroke-width="1.5"/></g></symbol><symbol id="favourite" viewBox="0 0 20 20"><g fill="none"><path d="M11 8 7.56 4.56a3.62 3.62 0 0 0-5.238 4.994L9.455 17.4a.737.737 0 0 0 1.09 0l7.133-7.846a3.62 3.62 0 0 0-5.238-4.995l-.94.941" stroke="currentColor" stroke-width="1.5"/></g></symbol><symbol id="feature-height" viewBox="0 0 40 40"><g fill="none"><path stroke="currentColor" stroke-width="1.5" d="M14 34.25h12M17 30.5l1.89 1.26a2 2 0 0 0 2.22 0L23 30.5M14 5.75h12M17 9.5l1.89-1.26a2 2 0 0 1 2.22 0L23 9.5"/></g></symbol><symbol id="feature-view" viewBox="0 0 20 20"><g fill="none"><path d="M19 10.754c-1.227 3.337-4.739 5.746-8.883 5.746-4.45 0-8.172-2.779-9.117-6.5.945-3.721 4.667-6.5 9.117-6.5 4.144 0 7.656 2.41 8.883 5.746" stroke="currentColor" stroke-width="1.5"/><circle cx="10" cy="10" r="3" stroke="currentColor" stroke-width="1.5"/></g></symbol><symbol id="feature-wet" viewBox="0 0 20 20"><g fill="none"><path d="M6.897 17.737c3.257 0 5.897-2.566 5.897-5.73 0-3.407-4.15-7.05-5.897-9.007C6.897 3 1 8.6 1 12.006c0 3.165 2.64 5.731 5.897 5.731ZM12.094 5.046C13.112 3.86 14 3.016 14 3.016c1.444 1.618 4.875 4.63 4.875 7.445 0 2.382-1.809 4.353-4.164 4.688" stroke="currentColor" stroke-width="1.5"/></g></symbol><symbol id="filters" viewBox="0 0 16 16"><g fill="none"><path stroke="currentColor" stroke-width="1.5" d="M0 4.5h6.5M13 4.5h3"/><circle cx="10.5" cy="4.5" r="2" stroke="currentColor" stroke-width="1.5"/><path stroke="currentColor" stroke-width="1.5" d="M16 11.5H9.5M3 11.5H0"/><circle cx="2" cy="2" r="2" transform="matrix(-1 0 0 1 7.5 9.5)" stroke="currentColor" stroke-width="1.5"/></g></symbol><symbol id="form-error" viewBox="0 0 12 12"><g fill="none"><path d="m2 2 8.5 8.5m0-8.5L2 10.5" stroke="currentColor" fill="none"/></g></symbol><symbol id="form-success" viewBox="0 0 12 12"><g fill="none"><path d="m11.5 2-8 8-3-3" stroke="currentColor" fill="none"/></g></symbol><symbol id="info-tooltip" viewBox="0 0 20 20"><g fill="none"><circle cx="10.5" cy="5.945" r=".945" fill="currentColor"/><path stroke="currentColor" d="M8 14.5h1.375M8 8.809h1.767c.405 0 .733.328.733.733v4.248c0 .405.328.733.733.733H13"/></g></symbol><symbol id="info" viewBox="0 0 20 20"><g fill="none"><circle cx="10" cy="13.5" r=".875" fill="currentColor"/><path stroke="currentColor" stroke-width="1.5" d="M10.094 5.625v5.25M17 17H5a2 2 0 0 1-2-2V5a2 2 0 0 1 2-2h10a2 2 0 0 1 2 2v9.375"/></g></symbol><symbol id="lock" viewBox="0 0 20 20"><g fill="none"><rect x="3" y="10" width="14" height="8" rx="1" stroke="currentColor" stroke-width="1.5"/><path d="M6 8V6.167C6 3.865 7.79 2 10 2s4 1.865 4 4.167V8" stroke="currentColor" stroke-width="1.5"/></g></symbol><symbol id="logo-pdf" viewBox="0 0 71 30"><g fill="none"><path d="M38.137.002h-4.242v29.983h4.242V.002ZM49.796 3.533H59.92c3.186 0 5.777 2.572 5.777 5.735 0 3.162-2.591 5.734-5.777 5.734H49.796V3.533ZM70.995 30 61.75 18.458c4.616-.562 8.189-4.462 8.189-9.192C69.939 4.153 65.755 0 60.605 0H45.57v29.982h4.242V18.516h6.714l9.184 11.466h5.285V30ZM8.679 18.534l5.805-15h.685l5.806 15H8.679ZM29.669 30 18.042.018h-6.43L0 30h4.242l3.08-7.935h15.036L25.425 30h4.244Z" fill="currentColor"/></g></symbol><symbol id="map-metro-grey" viewBox="0 0 22 22"><g fill="none"><circle cx="11" cy="11" r="10" fill="var(--marker-fill)" stroke="var(--marker-border)"/><path d="m6 14 3-6 2 4 2-4 3 6" stroke="var(--marker-text)" stroke-width="1.5"/></g></symbol><symbol id="map-metro" viewBox="0 0 22 22"><g fill="none"><circle cx="11" cy="11" r="10" fill="#000" stroke="#606060"/><path d="m6 14 3-6 2 4 2-4 3 6" stroke="#fff" stroke-width="1.5"/></g></symbol><symbol id="map-poi" viewBox="0 0 8 8"><g fill="none"><circle cx="4" cy="4" r="3" fill="#000" stroke="currentColor"/></g></symbol><symbol id="more" viewBox="0 0 16 16"><g fill="none"><path d="M8 0v4c0 2.4 1.76 4 4 4h4M0 8h6m2 8v-6" stroke="currentColor" stroke-width="1.5"/></g></symbol><symbol id="plus" viewBox="0 0 12 12"><g fill="none"><path d="M6 0v3c0 1.8 1.32 3 3 3h3M0 6h4.5M6 12V7.5" stroke="currentColor" stroke-width="1.5"/></g></symbol><symbol id="profile" viewBox="0 0 20 20"><g fill="none"><circle cx="10" cy="5" r="3" stroke="currentColor" stroke-width="1.5"/><path d="M17 17H3v-3a2 2 0 0 1 2-2h9a2 2 0 0 1 2 2v1" stroke="currentColor" stroke-width="1.5"/></g></symbol><symbol id="route" viewBox="0 0 14 14"><g fill="none"><circle cx="1.5" cy="12.5" r="1.5" fill="currentColor"/><circle cx="12.5" cy="1.5" r="1.5" fill="currentColor"/><path d="M5 12.5h5.25a2.75 2.75 0 1 0 0-5.5h-6.5a2.75 2.75 0 0 1 0-5.5H9" stroke="currentColor" stroke-width="1.5"/></g></symbol><symbol id="scroll" viewBox="0 0 20 20"><g fill="none"><path d="M4 6 1.414 8.586a2 2 0 0 0 0 2.828L4 14M16 6l2.586 2.586a2 2 0 0 1 0 2.828L16 14" stroke="currentColor" stroke-width="1.5"/></g></symbol><symbol id="taxi" viewBox="0 0 30 30"><g fill="none"><path d="M28.001 18.999a1 1 0 0 1-1 1h-3.232a1 1 0 0 1-1-1v-3.231a1 1 0 0 1 1-1h3.232a1 1 0 0 1 1 1v3.231Zm-16.105-4.768a1 1 0 0 1-1 1H8.23a1 1 0 0 0-1 1v2.752a1 1 0 0 1-1 1H3a1 1 0 0 1-1-1v-3.231a1 1 0 0 1 1-1h2.664a1 1 0 0 0 1-1V11a1 1 0 0 1 1-1h3.232a1 1 0 0 1 1 1v3.231Zm10.402.016a1 1 0 0 1-1 1h-2.684a1 1 0 0 0-1 1v2.736a1 1 0 0 1-1 1h-3.231a1 1 0 0 1-1-1v-3.231a1 1 0 0 1 1-1h2.683a1 1 0 0 0 1-1v-2.736a1 1 0 0 1 1-1h3.232a1 1 0 0 1 1 1v3.231Z" fill="currentColor"/></g></symbol><symbol id="toggle-collapse" viewBox="0 0 20 20"><g fill="none"><path stroke="currentColor" d="M2 9.5h16"/></g></symbol><symbol id="video-fullscreen" viewBox="0 0 20 20"><g fill="none"><path d="M8 3H5a2 2 0 0 0-2 2v3m5 9H5a2 2 0 0 1-2-2v-3m9 5h3a2 2 0 0 0 2-2v-3m-5-9h3a2 2 0 0 1 2 2v3" stroke="currentColor" stroke-width="1.5"/></g></symbol><symbol id="video-minimize" viewBox="0 0 20 20"><g fill="none"><path d="M2 7h3a2 2 0 0 0 2-2V2m11 5h-3a2 2 0 0 1-2-2V2m5 11h-3a2 2 0 0 0-2 2v3M2 13h3a2 2 0 0 1 2 2v3" stroke="currentColor" stroke-width="1.5"/></g></symbol><symbol id="video-mute" viewBox="0 0 20 20"><g fill="none"><path display="var(--is-visible--md-up)" d="M7 6.923 15 2v16l-8-4.923m0-6.154v6.154m0-6.154H4v6.154h3" fill="none" stroke="currentColor"/><path display="var(--is-visible--sm-down)" d="M7.455 7.692 14 4v12l-6.545-3.692m0-4.616v4.616m0-4.616H5v4.616h2.455" fill="none" stroke="currentColor"/></g></symbol><symbol id="video-pause" viewBox="0 0 20 20"><g fill="none"><path d="M14 3v14M6 3v14" stroke="currentColor" stroke-width="1.5"/></g></symbol><symbol id="video-play" viewBox="0 0 20 20"><g fill="none"><path d="m7 17 9-5.15a1.973 1.973 0 0 0 0-3.432l-9-5.15c-1.333-.762-3 .191-3 1.717v10.299" stroke="currentColor" stroke-width="1.5"/></g></symbol><symbol id="video-unmute" viewBox="0 0 20 20"><g fill="none"><path display="var(--is-visible--md-up)" d="M7 6.923 15 2v16l-8-4.923m0-6.154v6.154m0-6.154H4v6.154h3M18 15 2 5" fill="none" stroke="currentColor"/><path display="var(--is-visible--sm-down)" d="m7.75 7.692 6-3.692v12l-6-3.692m0-4.616v4.616m0-4.616H5.5v4.616h2.25M16 13.75 4 6.25" fill="none" stroke="currentColor"/></g></symbol><symbol id="map-art" viewBox="0 0 22 22"><g fill="none"><path d="M18.75 18H11a7 7 0 0 1-7-7V4h7a7 7 0 0 1 7 7v4.5" stroke="currentColor" stroke-width="1.5"/><circle cx="11" cy="11" r="4" stroke="currentColor" stroke-width="1.5"/><circle cx="11" cy="11" r="1" fill="currentColor"/></g></symbol><symbol id="map-bank" viewBox="0 0 22 22"><g fill="none"><path stroke="currentColor" stroke-width="1.5" d="M5.802 9.025v6.5M10.975 9.025v6.5M4.018 18.25H18.5M16.146 9.025v6.5M3.5 7.031l6.269-3.49a2 2 0 0 1 1.945 0l6.269 3.49"/></g></symbol><symbol id="map-beauty-salon" viewBox="0 0 22 22"><g fill="none"><path d="m6 4 7.5 10M16 4l-3.75 5M8.5 14l2.5-3.333" stroke="currentColor" stroke-width="1.5"/><circle cx="14.75" cy="15.75" r="2.25" stroke="currentColor" stroke-width="1.5"/><path d="M9.5 15.75a2.25 2.25 0 1 1-4.5 0 2.25 2.25 0 0 1 4.5 0Z" stroke="currentColor" stroke-width="1.5"/></g></symbol><symbol id="map-cafe" viewBox="0 0 22 22"><g fill="none"><path stroke="currentColor" stroke-width="1.5" d="M3 17.65h14.4M5.396 12.2V5h9.6v7.2a2.4 2.4 0 0 1-2.4 2.4h-4.8a2.4 2.4 0 0 1-2.4-2.4ZM16.5 5h.9a.8.8 0 0 1 .8.8v2.4a.8.8 0 0 1-.8.8h-.9"/></g></symbol><symbol id="map-dropoff" viewBox="0 0 22 22"><g fill="none"><path d="M16.7 12.567V14.1a.5.5 0 0 0 .5.5H20a.5.5 0 0 0 .5-.5v-2.8a.5.5 0 0 0-.5-.5h-1.533M5.3 10.8H2a.5.5 0 0 0-.5.5v2.8a.5.5 0 0 0 .5.5h2.8a.5.5 0 0 0 .5-.5v-3.3Zm0 0h3.3a.5.5 0 0 0 .5-.5V7.5a.5.5 0 0 0-.5-.5H5.8a.5.5 0 0 0-.5.5v3.3ZM12.9 10.8v3.3a.5.5 0 0 1-.5.5H9.6a.5.5 0 0 1-.5-.5v-1.534m3.8-1.766h3.3a.5.5 0 0 0 .5-.5V7.5a.5.5 0 0 0-.5-.5h-2.8a.5.5 0 0 0-.5.5v3.3Zm0 0h-2.034" stroke="currentColor" stroke-width="1.5"/></g></symbol><symbol id="map-field" viewBox="0 0 22 22"><g fill="none"><path d="M9.004 15.116a6.222 6.222 0 1 1 4 0M11.004 19V6.554" stroke="currentColor" stroke-width="1.5"/><path d="m7.893 8.777 3.11 3.112 3.112-3.112" stroke="currentColor" stroke-width="1.5"/></g></symbol><symbol id="map-flowers" viewBox="0 0 22 22"><g fill="none"><path d="M9.464 10.531c.33.277.536.469.536.469s-2.686 2.5-4.22 2.5C4.243 13.5 3 12.38 3 11s1.244-2.5 2.78-2.5c.685 0 1.6.498 2.402 1.05M12.532 11.469c-.33-.277-.536-.469-.536-.469s2.686-2.5 4.22-2.5c1.536 0 2.78 1.12 2.78 2.5s-1.244 2.5-2.78 2.5c-.685 0-1.6-.498-2.402-1.05M11.469 9.464C11.192 9.794 11 10 11 10S8.5 7.314 8.5 5.78C8.5 4.243 9.62 3 11 3s2.5 1.244 2.5 2.78c0 .685-.498 1.6-1.05 2.402M10.527 12.536c.278-.33.47-.536.47-.536s2.5 2.686 2.5 4.22c0 1.536-1.12 2.78-2.5 2.78-1.382 0-2.5-1.244-2.5-2.78 0-.685.498-1.6 1.05-2.402" stroke="currentColor" stroke-width="1.5"/></g></symbol><symbol id="map-laundry" viewBox="0 0 22 22"><g fill="none"><path d="M11 19c0-5.334-2.667-8-8-8 5.334 0 8-2.667 8-8 0 5.334 2.667 8 8 8-2.906 0-5.02.792-6.343 2.375" stroke="currentColor" stroke-width="1.5" stroke-miterlimit="10"/></g></symbol><symbol id="map-park" viewBox="0 0 22 22"><g fill="none"><path d="M9 15.116a6.222 6.222 0 1 1 4 0M11 19V6.556" stroke="currentColor" stroke-width="1.5"/><path d="m7.889 8.777 3.11 3.112 3.112-3.112" stroke="currentColor" stroke-width="1.5"/></g></symbol><symbol id="map-parking" viewBox="0 0 22 22"><g fill="none"><path d="M8.004 18V6h4.77a3.23 3.23 0 0 1 0 6.461h-2.417" stroke="currentColor" stroke-width="1.5"/></g></symbol><symbol id="map-pharmacy" viewBox="0 0 22 22"><g fill="none"><path d="M13.794 13.794h3.436a1.77 1.77 0 0 0 1.77-1.77V9.976a1.77 1.77 0 0 0-1.77-1.77h-3.436V4.77A1.77 1.77 0 0 0 12.024 3H9.976a1.77 1.77 0 0 0-1.77 1.77v3.436H4.77A1.77 1.77 0 0 0 3 9.976v2.048c0 .978.793 1.77 1.77 1.77h3.436v3.436c0 .977.792 1.77 1.77 1.77h2.048a1.77 1.77 0 0 0 1.77-1.77V16" stroke="currentColor" stroke-width="1.5" stroke-miterlimit="10" stroke-linejoin="round"/></g></symbol><symbol id="map-restaurant" viewBox="0 0 22 22"><g fill="none"><ellipse cx="14.741" cy="6.457" rx="2.138" ry="2.672" stroke="currentColor" stroke-width="1.5"/><path d="M14.741 11.268v7.482M7.259 11.268v7.482M5.121 3.25v3.88a2 2 0 0 0 2 2h.276a2 2 0 0 0 2-2V3.25M7.207 3.25v4.276" stroke="currentColor" stroke-width="1.5"/></g></symbol><symbol id="map-service" viewBox="0 0 22 22"><g fill="none"><path d="M11 19c0-5.334-2.667-8-8-8 5.334 0 8-2.667 8-8 0 5.334 2.667 8 8 8-2.906 0-5.02.792-6.343 2.375" stroke="currentColor" stroke-width="1.5" stroke-miterlimit="10"/></g></symbol><symbol id="map-services" viewBox="0 0 22 22"><g fill="none"><path d="M12.937 9.033 5.802 18.46l5.713-13.542a1.837 1.837 0 0 1 2.611-.876l.366.21c.763.441.967 1.45.436 2.153" stroke="currentColor" stroke-width="1.5"/><path d="m12.566 6.567 3.145 1.67a2 2 0 0 1 .666 2.961l-2.31 3.1c-.983 1.32-.042 3.196 1.604 3.196h1.578" stroke="currentColor" stroke-width="1.5"/></g></symbol><symbol id="map-shopping-center" viewBox="0 0 22 22"><g fill="none"><path d="M4.92 7.917A1 1 0 0 1 5.916 7h10.16a1 1 0 0 1 .997.917l.833 10A1 1 0 0 1 16.909 19H5.083a1 1 0 0 1-.997-1.083l.834-10Z" stroke="currentColor" stroke-width="1.5"/><path d="M7.996 7V6a3 3 0 0 1 6 0v1M7.996 9v1a3 3 0 1 0 6 0V9" stroke="currentColor" stroke-width="1.5"/></g></symbol><symbol id="map-sport" viewBox="0 0 22 22"><g fill="none"><path stroke="currentColor" stroke-width="1.5" d="M7.787 5v12M4.77 7.25v7.5M4.77 7.25v7.5M17.6 7.25v7.5M14.58 5v12M7.793 11h6.038M1 11h1.509M19.49 11H21"/></g></symbol><symbol id="map-supermarket" viewBox="0 0 22 22"><g fill="none"><path d="M4.924 7.917A1 1 0 0 1 5.92 7h10.16a1 1 0 0 1 .996.917l.834 10A1 1 0 0 1 16.913 19H5.087a1 1 0 0 1-.997-1.083l.834-10ZM8 7V6a3 3 0 0 1 6 0v1" stroke="currentColor" stroke-width="1.5"/><path d="M8 9v1a3 3 0 1 0 6 0V9" stroke="currentColor" stroke-width="1.5"/></g></symbol><symbol id="map-wine" viewBox="0 0 22 22"><g fill="none"><path d="M6.5 3.5h9l.639 4.258a5 5 0 0 1-4.945 5.742h-.388A5 5 0 0 1 5.86 7.758L6.5 3.5ZM11 15.5v3m0 0H6m5 0h5" stroke="currentColor" stroke-width="1.5"/></g></symbol></svg>